<svg width="25" height="25" viewBox="0 0 25 25" fill="none" xmlns="http://www.w3.org/2000/svg">
<rect x="1" y="1" width="23" height="23" rx="11.5" fill="white"/>
<path d="M18.305 13.6309C18.1815 13.5069 18.0167 13.4352 17.8429 13.4341H14.5602C14.1986 13.4341 13.9096 13.7341 13.9096 14.0956V14.6512C13.9096 14.8258 13.9754 14.9902 14.0995 15.1144C14.2236 15.2386 14.3869 15.307 14.5615 15.307L15.514 15.3072C14.732 16.1446 13.6437 16.621 12.4976 16.621C10.2239 16.621 8.37385 14.7711 8.37385 12.4973C8.37385 10.2234 10.2236 8.37356 12.4974 8.37356C14.1997 8.37356 15.7495 9.44234 16.3537 11.0331C16.491 11.3944 16.8431 11.6374 17.2297 11.6374C17.3433 11.6374 17.4552 11.6167 17.5621 11.5759C18.0451 11.3926 18.2886 10.8503 18.1051 10.3675C17.2261 8.05434 14.9726 6.5 12.4973 6.5C9.19044 6.5 6.5 9.19034 6.5 12.4973C6.5 15.8042 9.18868 18.4945 12.4955 18.4945C14.022 18.4945 15.5021 17.8938 16.6263 16.8391V17.3705C16.6263 17.7321 16.9241 18.0245 17.2857 18.0245H17.8413C18.2028 18.0245 18.5 17.7321 18.5 17.3705V14.0979C18.5 13.9227 18.4297 13.7549 18.305 13.6309Z" fill="#F05A39"/>
<rect x="1" y="1" width="23" height="23" rx="11.5" stroke="#F05A39" stroke-width="2"/>
</svg>
