<svg width="24" height="18" viewBox="0 0 24 18" xmlns="http://www.w3.org/2000/svg">
<path fill="current" fill-rule="evenodd" clip-rule="evenodd" d="M21.652 0.22125C21.359 -0.07375 20.882 -0.07375 20.591 0.22125L9.41 11.3503C9.117 11.6473 8.639 11.6473 8.348 11.3503L3.449 6.36125C3.304 6.21325 3.114 6.14025 2.923 6.13925C2.73 6.13825 2.534 6.21125 2.387 6.36125L0.222 8.30725C0.078 8.45525 0 8.64025 0 8.83325C0 9.02725 0.078 9.23025 0.223 9.37725L5.163 14.5613C5.455 14.8573 5.934 15.3373 6.225 15.6313L8.349 17.7722C8.641 18.0652 9.118 18.0652 9.411 17.7722L23.777 3.43225C24.07 3.13825 24.07 2.65525 23.777 2.36125L21.652 0.22125Z" />
</svg>
