<svg width="28" height="22" viewBox="0 0 28 22" fill="none" xmlns="http://www.w3.org/2000/svg">
<path d="M24.3616 1.51663L24.3615 1.51655C23.6801 0.830502 22.5673 0.825668 21.8831 1.51496L10.881 12.4658L6.16331 7.66142C6.1631 7.66121 6.16289 7.661 6.16269 7.66078C6.16263 7.66073 6.16257 7.66067 6.16251 7.66061C5.82118 7.31266 5.37178 7.14159 4.92824 7.13926L4.92818 7.13926C4.49383 7.13701 4.04485 7.29726 3.69984 7.63431L1.55351 9.56353L1.52862 9.5859L1.50527 9.60989C1.19333 9.93051 1 10.3608 1 10.8333C1 11.2778 1.17269 11.7324 1.50378 12.0721L6.43906 17.2511L6.44503 17.2574L6.4511 17.2635C6.61707 17.4318 6.84847 17.6645 7.06916 17.8865C7.23412 18.0524 7.39309 18.2123 7.51428 18.3347L7.51508 18.3355L9.63908 20.4765L9.64069 20.4781C10.3241 21.1639 11.4351 21.1622 12.118 20.4795C12.118 20.4794 12.1181 20.4794 12.1181 20.4794L26.4835 6.14L26.4853 6.13815C27.167 5.45415 27.1672 4.34039 26.486 3.65608C26.4858 3.65584 26.4856 3.65559 26.4853 3.65535L24.3616 1.51663Z" fill="white" stroke="#F05A39" stroke-width="2"/>
</svg>
