<svg width="25" height="25" viewBox="0 0 25 25" fill="none" xmlns="http://www.w3.org/2000/svg">
<rect x="1" y="1" width="23" height="23" rx="11.5" fill="white"/>
<path d="M13.8057 12.5002L17.8912 8.41468C18.0363 8.26959 18.0363 8.03481 17.8912 7.88977L17.1104 7.10863C17.0409 7.03913 16.9465 7 16.848 7C16.7495 7 16.6551 7.03913 16.5856 7.10863L12.5 11.1945L8.41446 7.10863C8.34492 7.03913 8.25055 7 8.15203 7C8.05353 7 7.95913 7.03913 7.88962 7.10863L7.10881 7.88977C6.96373 8.03481 6.96373 8.26959 7.10881 8.41468L11.1944 12.5003L7.10921 16.5853C6.96421 16.7304 6.96421 16.9652 7.10921 17.1102L7.89007 17.8914C7.95956 17.9609 8.05396 18 8.15248 18C8.251 18 8.34537 17.9609 8.41494 17.8914L12.5 13.806L16.5851 17.8914C16.6546 17.9609 16.749 18 16.8475 18C16.946 18 17.0404 17.9609 17.1099 17.8914L17.8908 17.1102C18.0358 16.9652 18.0358 16.7304 17.8908 16.5853L13.8057 12.5002Z" fill="#F05A39"/>
<rect x="1" y="1" width="23" height="23" rx="11.5" stroke="#F05A39" stroke-width="2"/>
</svg>
