<svg width="20" height="20" viewBox="0 0 20 20" fill="none" xmlns="http://www.w3.org/2000/svg">
<path d="M19.2957 7.15088C18.9066 7.15088 18.5914 7.46622 18.5914 7.85519V17.5578H1.40863V7.85519C1.40863 7.46622 1.09338 7.15088 0.704315 7.15088C0.315251 7.15088 0 7.46613 0 7.85519V18.2621C0 18.6511 0.315251 18.9665 0.704315 18.9665H19.2957C19.6847 18.9665 20 18.6511 20 18.2621V7.85519C20 7.46613 19.6847 7.15088 19.2957 7.15088Z" fill="white"/>
<path d="M9.50089 14.532C9.63302 14.6642 9.8121 14.7383 9.99898 14.7383C10.1858 14.7383 10.3648 14.6642 10.4971 14.532L13.5372 11.4918C13.8122 11.2168 13.8122 10.7708 13.5372 10.4958C13.262 10.2207 12.8161 10.2208 12.5411 10.4958L10.7034 12.3335L10.7038 1.73801C10.7038 1.34904 10.3885 1.03369 9.99945 1.03369C9.61048 1.03369 9.29513 1.34904 9.29513 1.73801L9.29476 12.3336L7.45922 10.498C7.18416 10.2229 6.73828 10.2228 6.46313 10.498C6.18807 10.773 6.18807 11.2189 6.46313 11.494L9.50089 14.532Z" fill="white"/>
</svg>
