<svg width="20" height="20" viewBox="0 0 12 16" fill="none" xmlns="http://www.w3.org/2000/svg">
<path fill-rule="evenodd" clip-rule="evenodd" d="M0.361094 7.29635H1.47971V7.15638V4.83294C1.47971 3.50417 2.00125 2.29596 2.84043 1.42057V1.4194C3.67998 0.54388 4.83881 0 6.11387 0C7.38794 0 8.54651 0.54388 9.38606 1.4194L9.38731 1.42057C10.2265 2.29596 10.748 3.50417 10.748 4.83294V7.15638V7.29635H11.639C11.8376 7.29635 12.0001 7.46589 12.0001 7.67279V15.6236C12.0001 15.8305 11.8376 16 11.639 16H0.361094C0.162567 16 0 15.8305 0 15.6236V7.67279C0 7.46589 0.162567 7.29635 0.361094 7.29635ZM3.28018 7.29635H8.94718V7.15638V4.80612C8.94718 3.99362 8.62829 3.25443 8.11537 2.71888L8.11475 2.7194C7.60145 2.18372 6.89275 1.85104 6.11387 1.85104C5.33462 1.85104 4.62592 2.18359 4.112 2.71888C3.59895 3.25443 3.28018 3.99362 3.28018 4.80612V7.15651V7.29635ZM6.13672 11.6469L6.7087 14.3994L5.14084 14.4063L5.60095 11.6168C5.17256 11.4736 4.86203 11.0549 4.86203 10.5607C4.86203 9.94857 5.33774 9.45247 5.92496 9.45247C6.51155 9.45247 6.98764 9.94857 6.98764 10.5607C6.98764 11.0971 6.62205 11.5447 6.13672 11.6469Z" fill="white"/>
</svg>
