<svg width="68" height="46" viewBox="0 0 68 46" fill="none" xmlns="http://www.w3.org/2000/svg">
<path d="M67.6648 1.30872C67.6693 1.28167 67.6771 1.25463 67.6793 1.22758C67.6871 1.14419 67.6782 1.05967 67.6682 0.975154C67.6659 0.953743 67.6693 0.933459 67.6659 0.912047C67.6459 0.800483 67.6091 0.691173 67.5545 0.586371C67.5455 0.56834 67.5333 0.551437 67.5232 0.533406C67.521 0.531152 67.521 0.527771 67.5199 0.52439C67.5188 0.522137 67.5154 0.52101 67.5143 0.517629C67.5065 0.505233 67.4998 0.491711 67.492 0.480441C67.4229 0.377893 67.3393 0.293374 67.2457 0.221252C67.2245 0.205475 67.2 0.19646 67.1777 0.18181C67.0952 0.126591 67.0082 0.0815148 66.9146 0.0510882C66.8734 0.0375653 66.8321 0.0308043 66.7898 0.0229159C66.7084 0.00601224 66.627 -0.00187664 66.5423 0.000377179C66.4977 0.00150409 66.4553 0.00375771 66.4107 0.0105192C66.3818 0.0150268 66.3539 0.0105198 66.3249 0.0172812L1.61892 13.5357C1.15854 13.6326 0.806281 14.0101 0.740511 14.4812C0.674742 14.9522 0.907722 15.4143 1.32352 15.6363L19.8638 25.5226L23.1155 43.7639C23.1133 43.7774 23.1166 43.7921 23.1155 43.8056C23.1044 43.8958 23.1032 43.9837 23.1144 44.0727C23.12 44.1178 23.1255 44.1606 23.1367 44.2045C23.1623 44.3116 23.2036 44.4119 23.2593 44.5066C23.2704 44.5246 23.2704 44.546 23.2827 44.564C23.2861 44.5697 23.2916 44.5742 23.2961 44.5787C23.3106 44.6001 23.3306 44.617 23.3474 44.6384C23.3998 44.7038 23.4544 44.7635 23.5168 44.8142C23.5268 44.8221 23.5335 44.8345 23.5447 44.8424C23.5614 44.8548 23.5803 44.8582 23.5971 44.8694C23.6651 44.9145 23.7353 44.9517 23.81 44.981C23.8401 44.9923 23.8679 45.0058 23.8992 45.0148C23.9995 45.0441 24.1032 45.0644 24.2079 45.0644H24.2113C24.2157 45.0644 24.2202 45.0621 24.2247 45.0621C24.2436 45.0632 24.2626 45.0644 24.2815 45.0644C24.5903 45.0644 24.869 44.9246 25.0752 44.7094L37.4254 36.386L50.3563 44.8829C50.5391 45.0024 50.7509 45.0644 50.9638 45.0644C51.0809 45.0644 51.2002 45.0452 51.315 45.0069C51.636 44.8987 51.8924 44.6485 52.0095 44.3262L67.6113 1.51607C67.6258 1.47776 67.6381 1.43831 67.6481 1.39775C67.6526 1.38084 67.6537 1.36394 67.657 1.34816C67.6604 1.33577 67.6626 1.32224 67.6648 1.30872ZM54.7539 8.50179L28.0081 28.3816C27.9646 28.4143 27.93 28.4549 27.8921 28.4932C27.8777 28.5067 27.8632 28.518 27.8509 28.5326C27.8275 28.5585 27.8063 28.5844 27.7851 28.6126C27.7651 28.6397 27.7495 28.6678 27.7316 28.696C27.6904 28.7636 27.6558 28.8335 27.6291 28.9079C27.6235 28.9225 27.6146 28.9338 27.6101 28.9484C27.609 28.9529 27.6045 28.9552 27.6034 28.9597L24.5379 39.0309L22.1089 25.4054L54.7539 8.50179ZM26.2657 41.1991L29.3045 31.0524L34.0355 34.1615L35.3887 35.0507L30.7916 38.1485L26.2657 41.1991ZM58.7447 3.90287L20.8738 23.5122L5.11139 15.1077L58.7447 3.90287ZM50.4009 42.2246L33.2284 30.9419L30.6277 29.2324L64.2415 4.24657L50.4009 42.2246Z" fill="#F05A39"/>
</svg>
