<svg width="171" height="46" viewBox="0 0 171 46" fill="none" xmlns="http://www.w3.org/2000/svg">
<path d="M116.665 1.30872C116.669 1.28167 116.677 1.25463 116.679 1.22758C116.687 1.14419 116.678 1.05967 116.668 0.975154C116.666 0.953743 116.669 0.933459 116.666 0.912047C116.646 0.800483 116.609 0.691173 116.554 0.586371C116.546 0.56834 116.533 0.551437 116.523 0.533406C116.521 0.531152 116.521 0.527771 116.52 0.52439C116.519 0.522137 116.515 0.52101 116.514 0.517629C116.507 0.505233 116.5 0.491711 116.492 0.480441C116.423 0.377893 116.339 0.293374 116.246 0.221252C116.225 0.205475 116.2 0.19646 116.178 0.18181C116.095 0.126591 116.008 0.0815148 115.915 0.0510882C115.873 0.0375653 115.832 0.0308043 115.79 0.0229159C115.708 0.00601224 115.627 -0.00187664 115.542 0.000377179C115.498 0.00150409 115.455 0.00375771 115.411 0.0105192C115.382 0.0150268 115.354 0.0105198 115.325 0.0172812L50.6189 13.5357C50.1585 13.6326 49.8063 14.0101 49.7405 14.4812C49.6747 14.9522 49.9077 15.4143 50.3235 15.6363L68.8638 25.5226L72.1155 43.7639C72.1133 43.7774 72.1166 43.7921 72.1155 43.8056C72.1044 43.8958 72.1032 43.9837 72.1144 44.0727C72.12 44.1178 72.1255 44.1606 72.1367 44.2045C72.1623 44.3116 72.2036 44.4119 72.2593 44.5066C72.2704 44.5246 72.2704 44.546 72.2827 44.564C72.2861 44.5697 72.2916 44.5742 72.2961 44.5787C72.3106 44.6001 72.3306 44.617 72.3474 44.6384C72.3998 44.7038 72.4544 44.7635 72.5168 44.8142C72.5268 44.8221 72.5335 44.8345 72.5447 44.8424C72.5614 44.8548 72.5803 44.8582 72.5971 44.8694C72.6651 44.9145 72.7353 44.9517 72.81 44.981C72.8401 44.9923 72.8679 45.0058 72.8992 45.0148C72.9995 45.0441 73.1032 45.0644 73.2079 45.0644H73.2113C73.2157 45.0644 73.2202 45.0621 73.2247 45.0621C73.2436 45.0632 73.2626 45.0644 73.2815 45.0644C73.5903 45.0644 73.869 44.9246 74.0752 44.7094L86.4254 36.386L99.3563 44.8829C99.5391 45.0024 99.7509 45.0644 99.9638 45.0644C100.081 45.0644 100.2 45.0452 100.315 45.0069C100.636 44.8987 100.892 44.6485 101.009 44.3262L116.611 1.51607C116.626 1.47776 116.638 1.43831 116.648 1.39775C116.653 1.38084 116.654 1.36394 116.657 1.34816C116.66 1.33577 116.663 1.32224 116.665 1.30872ZM103.754 8.50179L77.0081 28.3816C76.9646 28.4143 76.93 28.4549 76.8921 28.4932C76.8777 28.5067 76.8632 28.518 76.8509 28.5326C76.8275 28.5585 76.8063 28.5844 76.7851 28.6126C76.7651 28.6397 76.7495 28.6678 76.7316 28.696C76.6904 28.7636 76.6558 28.8335 76.6291 28.9079C76.6235 28.9225 76.6146 28.9338 76.6101 28.9484C76.609 28.9529 76.6045 28.9552 76.6034 28.9597L73.5379 39.0309L71.1089 25.4054L103.754 8.50179ZM75.2657 41.1991L78.3045 31.0524L83.0355 34.1615L84.3887 35.0507L79.7916 38.1485L75.2657 41.1991ZM107.745 3.90287L69.8738 23.5122L54.1114 15.1077L107.745 3.90287ZM99.4009 42.2246L82.2284 30.9419L79.6277 29.2324L113.241 4.24657L99.4009 42.2246Z" fill="#F05A39"/>
<line x1="13.6777" y1="12.6631" x2="39.4288" y2="12.6631" stroke="#FFBA47" stroke-width="3"/>
<line x1="0.802734" y1="28.1137" x2="36.8542" y2="28.1137" stroke="#FFBA47" stroke-width="3"/>
<line x1="13.6777" y1="43.5644" x2="39.4288" y2="43.5644" stroke="#FFBA47" stroke-width="3"/>
<line x1="130.846" y1="12.6631" x2="156.597" y2="12.6631" stroke="#FFBA47" stroke-width="3"/>
<line x1="134.709" y1="28.1137" x2="170.76" y2="28.1137" stroke="#FFBA47" stroke-width="3"/>
<line x1="130.846" y1="43.5644" x2="156.597" y2="43.5644" stroke="#FFBA47" stroke-width="3"/>
</svg>
