<svg width="67" height="46" viewBox="0 0 67 46" fill="none" xmlns="http://www.w3.org/2000/svg">
<path d="M66.9353 1.30872C66.9398 1.28167 66.9476 1.25463 66.9498 1.22758C66.9576 1.14419 66.9487 1.05967 66.9387 0.975154C66.9364 0.953743 66.9398 0.933459 66.9364 0.912047C66.9164 0.800483 66.8796 0.691173 66.825 0.586371C66.816 0.56834 66.8038 0.551437 66.7938 0.533406C66.7915 0.531152 66.7915 0.527771 66.7904 0.52439C66.7893 0.522137 66.786 0.52101 66.7848 0.517629C66.777 0.505233 66.7703 0.491711 66.7625 0.480441C66.6934 0.377893 66.6098 0.293374 66.5162 0.221252C66.495 0.205475 66.4705 0.19646 66.4482 0.18181C66.3657 0.126591 66.2787 0.0815148 66.1851 0.0510882C66.1439 0.0375653 66.1026 0.0308043 66.0603 0.0229159C65.9789 0.00601224 65.8975 -0.00187664 65.8128 0.000377179C65.7682 0.00150409 65.7258 0.00375771 65.6813 0.0105192C65.6523 0.0150268 65.6244 0.0105198 65.5954 0.0172812L0.889431 13.5357C0.429045 13.6326 0.0767886 14.0101 0.0110191 14.4812C-0.0547503 14.9522 0.17823 15.4143 0.594026 15.6363L19.1343 25.5226L22.386 43.7639C22.3838 43.7774 22.3871 43.7921 22.386 43.8056C22.3749 43.8958 22.3737 43.9837 22.3849 44.0727C22.3905 44.1178 22.396 44.1606 22.4072 44.2045C22.4328 44.3116 22.4741 44.4119 22.5298 44.5066C22.541 44.5246 22.541 44.546 22.5532 44.564C22.5566 44.5697 22.5621 44.5742 22.5666 44.5787C22.5811 44.6001 22.6012 44.617 22.6179 44.6384C22.6703 44.7038 22.7249 44.7635 22.7873 44.8142C22.7973 44.8221 22.804 44.8345 22.8152 44.8424C22.8319 44.8548 22.8509 44.8582 22.8676 44.8694C22.9356 44.9145 23.0058 44.9517 23.0805 44.981C23.1106 44.9923 23.1385 45.0058 23.1697 45.0148C23.27 45.0441 23.3737 45.0644 23.4784 45.0644H23.4818C23.4863 45.0644 23.4907 45.0621 23.4952 45.0621C23.5141 45.0632 23.5331 45.0644 23.552 45.0644C23.8608 45.0644 24.1395 44.9246 24.3457 44.7094L36.6959 36.386L49.6268 44.8829C49.8096 45.0024 50.0214 45.0644 50.2343 45.0644C50.3514 45.0644 50.4707 45.0452 50.5855 45.0069C50.9065 44.8987 51.1629 44.6485 51.28 44.3262L66.8818 1.51607C66.8963 1.47776 66.9086 1.43831 66.9186 1.39775C66.9231 1.38084 66.9242 1.36394 66.9275 1.34816C66.9309 1.33577 66.9331 1.32224 66.9353 1.30872ZM54.0245 8.50179L27.2786 28.3816C27.2351 28.4143 27.2006 28.4549 27.1627 28.4932C27.1482 28.5067 27.1337 28.518 27.1214 28.5326C27.098 28.5585 27.0768 28.5844 27.0556 28.6126C27.0356 28.6397 27.02 28.6678 27.0021 28.696C26.9609 28.7636 26.9263 28.8335 26.8996 28.9079C26.894 28.9225 26.8851 28.9338 26.8806 28.9484C26.8795 28.9529 26.8751 28.9552 26.8739 28.9597L23.8084 39.0309L21.3794 25.4054L54.0245 8.50179ZM25.5363 41.1991L28.575 31.0524L33.306 34.1615L34.6593 35.0507L30.0621 38.1485L25.5363 41.1991ZM58.0152 3.90287L20.1443 23.5122L4.3819 15.1077L58.0152 3.90287ZM49.6714 42.2246L32.4989 30.9419L29.8982 29.2324L63.512 4.24657L49.6714 42.2246Z" fill="white"/>
</svg>
