<svg width="19" height="18" viewBox="0 0 19 18" fill="none" xmlns="http://www.w3.org/2000/svg">
<path d="M14.7329 10.6211V14.0805C14.7329 14.9382 14.4447 15.6715 13.8684 16.2805C13.2921 16.8895 12.5981 17.194 11.7865 17.194H3.27455C2.46292 17.194 1.76894 16.8895 1.19262 16.2805C0.616288 15.6715 0.328125 14.9382 0.328125 14.0805V5.08592C0.328125 4.22826 0.616288 3.49493 1.19262 2.88592C1.76894 2.27691 2.46292 1.97241 3.27455 1.97241H10.4769C10.5724 1.97241 10.6509 2.00484 10.7122 2.06971C10.7736 2.13457 10.8043 2.21745 10.8043 2.31835V3.01025C10.8043 3.11115 10.7736 3.19403 10.7122 3.25889C10.6509 3.32376 10.5724 3.35619 10.4769 3.35619H3.27455C2.8244 3.35619 2.43905 3.52556 2.11849 3.8643C1.79793 4.20304 1.63765 4.61025 1.63765 5.08592V14.0805C1.63765 14.5562 1.79793 14.9634 2.11849 15.3021C2.43905 15.6409 2.8244 15.8102 3.27455 15.8102H11.7865C12.2366 15.8102 12.622 15.6409 12.9425 15.3021C13.2631 14.9634 13.4234 14.5562 13.4234 14.0805V10.6211C13.4234 10.5202 13.4541 10.4373 13.5154 10.3724C13.5768 10.3075 13.6553 10.2751 13.7507 10.2751H14.4055C14.501 10.2751 14.5794 10.3075 14.6408 10.3724C14.7022 10.4373 14.7329 10.5202 14.7329 10.6211ZM18.6615 1.28052V6.81565C18.6615 7.00304 18.5967 7.1652 18.4671 7.30214C18.3375 7.43908 18.184 7.50754 18.0067 7.50754C17.8294 7.50754 17.6759 7.43908 17.5463 7.30214L15.7457 5.39944L9.07533 12.4481C9.00713 12.5202 8.9287 12.5562 8.84003 12.5562C8.75136 12.5562 8.67293 12.5202 8.60472 12.4481L7.43843 11.2157C7.37023 11.1436 7.33612 11.0607 7.33612 10.967C7.33612 10.8733 7.37023 10.7904 7.43843 10.7184L14.1088 3.66971L12.3082 1.767C12.1786 1.63007 12.1138 1.4679 12.1138 1.28052C12.1138 1.09313 12.1786 0.930967 12.3082 0.794031C12.4378 0.657093 12.5913 0.588625 12.7686 0.588625H18.0067C18.184 0.588625 18.3375 0.657093 18.4671 0.794031C18.5967 0.930967 18.6615 1.09313 18.6615 1.28052Z" fill="white"/>
</svg>
