<svg width="60" height="60" viewBox="0 0 60 60" fill="none" xmlns="http://www.w3.org/2000/svg">
<path d="M39.8869 32.5471V37.5633C39.8869 38.8069 39.4691 39.8702 38.6334 40.7533C37.7977 41.6363 36.7914 42.0779 35.6146 42.0779H23.2723C22.0955 42.0779 21.0892 41.6363 20.2535 40.7533C19.4178 39.8702 19 38.8069 19 37.5633V24.5211C19 23.2775 19.4178 22.2142 20.2535 21.3311C21.0892 20.4481 22.0955 20.0065 23.2723 20.0065H33.7158C33.8542 20.0065 33.968 20.0536 34.057 20.1476C34.146 20.2417 34.1905 20.3618 34.1905 20.5081V21.5114C34.1905 21.6577 34.146 21.7779 34.057 21.8719C33.968 21.966 33.8542 22.013 33.7158 22.013H23.2723C22.6196 22.013 22.0608 22.2586 21.596 22.7498C21.1312 23.2409 20.8988 23.8314 20.8988 24.5211V37.5633C20.8988 38.253 21.1312 38.8435 21.596 39.3346C22.0608 39.8258 22.6196 40.0714 23.2723 40.0714H35.6146C36.2673 40.0714 36.8261 39.8258 37.2909 39.3346C37.7557 38.8435 37.9881 38.253 37.9881 37.5633V32.5471C37.9881 32.4008 38.0326 32.2806 38.1216 32.1865C38.2106 32.0925 38.3243 32.0454 38.4628 32.0454H39.4122C39.5507 32.0454 39.6644 32.0925 39.7534 32.1865C39.8424 32.2806 39.8869 32.4008 39.8869 32.5471ZM45.5833 19.0033V27.0292C45.5833 27.3009 45.4894 27.5361 45.3015 27.7346C45.1136 27.9332 44.8911 28.0325 44.6339 28.0325C44.3768 28.0325 44.1543 27.9332 43.9664 27.7346L41.3555 24.9757L31.6835 35.1963C31.5846 35.3008 31.4708 35.353 31.3423 35.353C31.2137 35.353 31.1 35.3008 31.0011 35.1963L29.3099 33.4092C29.211 33.3047 29.1616 33.1845 29.1616 33.0487C29.1616 32.9128 29.211 32.7927 29.3099 32.6882L38.982 22.4676L36.3711 19.7087C36.1832 19.5101 36.0893 19.275 36.0893 19.0033C36.0893 18.7316 36.1832 18.4964 36.3711 18.2979C36.559 18.0993 36.7816 18 37.0387 18H44.6339C44.8911 18 45.1136 18.0993 45.3015 18.2979C45.4894 18.4964 45.5833 18.7316 45.5833 19.0033Z" fill="white"/>
</svg>
