<svg width="19" height="23" viewBox="0 0 19 23" fill="none" xmlns="http://www.w3.org/2000/svg">
<path d="M17.2562 3.22643H15.8558C15.8266 3.22643 15.8007 3.23645 15.7736 3.24301V1.77249C15.7736 0.795059 14.9603 0 13.9605 0H1.81311C0.813268 0 0 0.795059 0 1.77249V18.303C0 19.2804 0.813268 20.0755 1.81311 20.0755H3.94339V20.8758C3.94339 21.8182 4.7255 22.5849 5.68719 22.5849H17.2562C18.2179 22.5849 19 21.8182 19 20.8758V4.93554C19 3.99312 18.2179 3.22643 17.2562 3.22643ZM0.716964 18.303V1.77249C0.716964 1.19065 1.20886 0.717 1.81311 0.717H13.9605C14.5647 0.717 15.0566 1.19065 15.0566 1.77249V18.303C15.0566 18.8848 14.5647 19.3585 13.9605 19.3585H1.81311C1.20886 19.3585 0.716964 18.8848 0.716964 18.303ZM18.283 20.8758C18.283 21.423 17.8223 21.8679 17.2562 21.8679H5.68719C5.12109 21.8679 4.66036 21.423 4.66036 20.8758V20.0755H13.9605C14.9603 20.0755 15.7736 19.2804 15.7736 18.303V3.92681C15.8007 3.93337 15.8266 3.94339 15.8558 3.94339H17.2562C17.8223 3.94339 18.283 4.38835 18.283 4.93554V20.8758Z" fill="#F05A39"/>
<path d="M11.8302 4.6604H3.94346C3.74531 4.6604 3.58496 4.82072 3.58496 5.01887C3.58496 5.21705 3.74531 5.37736 3.94346 5.37736H11.8302C12.0284 5.37736 12.1887 5.21705 12.1887 5.01887C12.1887 4.82072 12.0284 4.6604 11.8302 4.6604Z" fill="#F05A39"/>
<path d="M11.8302 7.52832H3.94346C3.74531 7.52832 3.58496 7.68864 3.58496 7.88678C3.58496 8.08493 3.74531 8.24528 3.94346 8.24528H11.8302C12.0284 8.24528 12.1887 8.08493 12.1887 7.88678C12.1887 7.68864 12.0284 7.52832 11.8302 7.52832Z" fill="#F05A39"/>
<path d="M11.8302 10.3962H3.94346C3.74531 10.3962 3.58496 10.5566 3.58496 10.7547C3.58496 10.9529 3.74531 11.1132 3.94346 11.1132H11.8302C12.0284 11.1132 12.1887 10.9529 12.1887 10.7547C12.1887 10.5566 12.0284 10.3962 11.8302 10.3962Z" fill="#F05A39"/>
<path d="M8.24535 13.2642H3.94346C3.74531 13.2642 3.58496 13.4245 3.58496 13.6227C3.58496 13.8208 3.74531 13.9812 3.94346 13.9812H8.24535C8.4435 13.9812 8.60382 13.8208 8.60382 13.6227C8.60382 13.4245 8.4435 13.2642 8.24535 13.2642Z" fill="#F05A39"/>
</svg>
